<svg xmlns="http://www.w3.org/2000/svg" width="32" height="32" viewBox="0 0 32 32" fill="none">
<rect x="16.3823" y="3.79413" width="2.23529" height="3.35294" rx="1.11765" fill="#ff7f00"/>
<path d="M20.2942 23.9118C20.2942 25.4549 19.0432 26.7059 17.5001 26.7059C15.9569 26.7059 14.7059 25.4549 14.7059 23.9118" stroke="#ff7f00" stroke-width="1.5"/>
<mask id="path-3-inside-1_2160_6044" fill="white">
<path fill-rule="evenodd" clip-rule="evenodd" d="M17.5 6.02942C12.8706 6.02942 9.11765 9.78233 9.11765 14.4118V19.123C9.11737 19.3309 9.0557 19.5341 8.94037 19.7071L8.17728 20.8517C8.06168 21.0251 8 21.2289 8 21.4373V22.8562C8 23.4392 8.47259 23.9118 9.05556 23.9118H25.9444C26.5274 23.9118 27 23.4392 27 22.8562V21.4373C27 21.2289 26.9383 21.0251 26.8227 20.8517L26.0596 19.7071C25.944 19.5337 25.8824 19.33 25.8824 19.1216V14.9085C25.8824 14.9078 25.8824 14.9072 25.8824 14.9065V14.4118C25.8824 9.78233 22.1294 6.02942 17.5 6.02942Z"/>
</mask>
<path d="M17.5 6.02942L17.5 4.52942L17.5 6.02942ZM9.11765 19.123L10.6176 19.125V19.123H9.11765ZM8.94037 19.7071L7.69229 18.8751L7.69229 18.8751L8.94037 19.7071ZM8.17728 20.8517L9.42536 21.6838L9.42536 21.6838L8.17728 20.8517ZM26.8227 20.8517L28.0708 20.0197L28.0708 20.0197L26.8227 20.8517ZM26.0596 19.7071L24.8116 20.5392L24.8116 20.5392L26.0596 19.7071ZM10.6176 14.4118C10.6176 10.6108 13.699 7.52942 17.5 7.52942L17.5 4.52942C12.0421 4.52942 7.61765 8.9539 7.61765 14.4118H10.6176ZM10.6176 19.123V14.4118H7.61765V19.123H10.6176ZM10.1884 20.5392C10.4677 20.1203 10.617 19.6284 10.6176 19.125L7.61765 19.121C7.61777 19.0335 7.64373 18.9479 7.69229 18.8751L10.1884 20.5392ZM9.42536 21.6838L10.1884 20.5392L7.69229 18.8751L6.9292 20.0197L9.42536 21.6838ZM9.5 21.4373C9.5 21.525 9.47403 21.6108 9.42536 21.6838L6.92921 20.0197C6.64934 20.4395 6.5 20.9327 6.5 21.4373H9.5ZM9.5 22.8562V21.4373H6.5V22.8562H9.5ZM9.05556 22.4118C9.30101 22.4118 9.5 22.6108 9.5 22.8562H6.5C6.5 24.2676 7.64416 25.4118 9.05556 25.4118V22.4118ZM25.9444 22.4118H9.05556V25.4118H25.9444V22.4118ZM25.5 22.8562C25.5 22.6108 25.699 22.4118 25.9444 22.4118V25.4118C27.3558 25.4118 28.5 24.2676 28.5 22.8562H25.5ZM25.5 21.4373V22.8562H28.5V21.4373H25.5ZM25.5746 21.6838C25.526 21.6108 25.5 21.525 25.5 21.4373H28.5C28.5 20.9327 28.3507 20.4395 28.0708 20.0197L25.5746 21.6838ZM24.8116 20.5392L25.5746 21.6838L28.0708 20.0197L27.3077 18.8751L24.8116 20.5392ZM24.3824 19.1216C24.3824 19.6261 24.5317 20.1194 24.8116 20.5392L27.3077 18.8751C27.3564 18.9481 27.3824 19.0338 27.3824 19.1216H24.3824ZM24.3824 14.9085V19.1216H27.3824V14.9085H24.3824ZM24.3824 14.9065C24.3824 14.9081 24.3824 14.9094 24.3824 14.9096C24.3824 14.9101 24.3824 14.9094 24.3824 14.9085H27.3824C27.3824 14.9069 27.3824 14.9055 27.3824 14.9054C27.3823 14.9049 27.3824 14.9056 27.3824 14.9065H24.3824ZM24.3824 14.4118V14.9065H27.3824V14.4118H24.3824ZM17.5 7.52942C21.301 7.52942 24.3824 10.6108 24.3824 14.4118H27.3824C27.3824 8.9539 22.9579 4.52942 17.5 4.52942L17.5 7.52942Z" fill="#ff7f00" mask="url(#path-3-inside-1_2160_6044)"/>
</svg>