<svg width="27" height="27" viewBox="0 0 22 22" fill="none" xmlns="http://www.w3.org/2000/svg">
    <mask id="path-1-inside-1_383_45" fill="white">
        <path fill-rule="evenodd" clip-rule="evenodd" d="M9.5 0.5H12.5L13.4137 2.32732C14.1232 2.52436 14.7975 2.80614 15.4249 3.16107L17.364 2.51471L19.4853 4.63603L18.8389 6.57509C19.1939 7.20253 19.4756 7.8768 19.6727 8.58634L21.5 9.5V12.5L19.6727 13.4137C19.4756 14.1232 19.1939 14.7975 18.8389 15.4249L19.4853 17.364L17.364 19.4853L15.4249 18.8389C14.7975 19.1939 14.1232 19.4756 13.4137 19.6727L12.5 21.5H9.5L8.58633 19.6727C7.87681 19.4756 7.20254 19.1939 6.57512 18.8389L4.63604 19.4853L2.51472 17.364L3.16108 15.4249C2.80615 14.7975 2.52437 14.1232 2.32733 13.4137L0.5 12.5V9.5L2.32732 8.58634C2.52437 7.8768 2.80615 7.20253 3.16108 6.5751L2.51472 4.63603L4.63604 2.51471L6.57511 3.16107C7.20254 2.80614 7.87681 2.52436 8.58634 2.32732L9.5 0.5Z"/>
    </mask>
    <path stroke="#ff7f00" d="M12.5 0.5L13.8416 -0.17082L13.427 -1H12.5V0.5ZM9.5 0.5V-1H8.57295L8.15836 -0.170821L9.5 0.5ZM13.4137 2.32732L12.072 2.99814L12.3701 3.59428L13.0123 3.77262L13.4137 2.32732ZM15.4249 3.16107L14.6863 4.46665L15.2667 4.79494L15.8992 4.58409L15.4249 3.16107ZM17.364 2.51471L18.4246 1.45405L17.7691 0.798527L16.8896 1.09169L17.364 2.51471ZM19.4853 4.63603L20.9083 5.11037L21.2015 4.2309L20.5459 3.57537L19.4853 4.63603ZM18.8389 6.57509L17.4159 6.10075L17.205 6.73331L17.5333 7.31365L18.8389 6.57509ZM19.6727 8.58634L18.2274 8.98771L18.4057 9.62991L19.0019 9.92798L19.6727 8.58634ZM21.5 9.5H23V8.57295L22.1708 8.15836L21.5 9.5ZM21.5 12.5L22.1708 13.8416L23 13.4271V12.5H21.5ZM19.6727 13.4137L19.0019 12.072L18.4057 12.3701L18.2274 13.0123L19.6727 13.4137ZM18.8389 15.4249L17.5333 14.6863L17.205 15.2667L17.4159 15.8992L18.8389 15.4249ZM19.4853 17.364L20.5459 18.4246L21.2015 17.7691L20.9083 16.8896L19.4853 17.364ZM17.364 19.4853L16.8896 20.9083L17.7691 21.2015L18.4246 20.5459L17.364 19.4853ZM15.4249 18.8389L15.8992 17.4159L15.2667 17.2051L14.6863 17.5333L15.4249 18.8389ZM13.4137 19.6727L13.0123 18.2274L12.3701 18.4057L12.072 19.0019L13.4137 19.6727ZM12.5 21.5V23H13.427L13.8416 22.1708L12.5 21.5ZM9.5 21.5L8.15836 22.1708L8.57295 23H9.5V21.5ZM8.58633 19.6727L9.92797 19.0019L9.62991 18.4057L8.98771 18.2274L8.58633 19.6727ZM6.57512 18.8389L7.31367 17.5333L6.73333 17.2051L6.10078 17.4159L6.57512 18.8389ZM4.63604 19.4853L3.57538 20.5459L4.23091 21.2015L5.11038 20.9083L4.63604 19.4853ZM2.51472 17.364L1.0917 16.8896L0.798538 17.7691L1.45406 18.4246L2.51472 17.364ZM3.16108 15.4249L4.5841 15.8992L4.79495 15.2667L4.46666 14.6863L3.16108 15.4249ZM2.32733 13.4137L3.77263 13.0123L3.59428 12.3701L2.99815 12.072L2.32733 13.4137ZM0.5 12.5H-1V13.4271L-0.17082 13.8416L0.5 12.5ZM0.5 9.5L-0.170821 8.15836L-1 8.57295V9.5H0.5ZM2.32732 8.58634L2.99814 9.92798L3.59428 9.62991L3.77263 8.98771L2.32732 8.58634ZM3.16108 6.5751L4.46666 7.31365L4.79495 6.73331L4.5841 6.10076L3.16108 6.5751ZM2.51472 4.63603L1.45406 3.57537L0.798538 4.23089L1.0917 5.11037L2.51472 4.63603ZM4.63604 2.51471L5.11038 1.09169L4.23091 0.798527L3.57538 1.45405L4.63604 2.51471ZM6.57511 3.16107L6.10077 4.58409L6.73332 4.79494L7.31367 4.46665L6.57511 3.16107ZM8.58634 2.32732L8.98771 3.77262L9.62991 3.59428L9.92798 2.99814L8.58634 2.32732ZM12.5 -1H9.5V2H12.5V-1ZM14.7553 1.6565L13.8416 -0.17082L11.1584 1.17082L12.072 2.99814L14.7553 1.6565ZM16.1634 1.85549C15.4312 1.44128 14.6439 1.11219 13.815 0.882013L13.0123 3.77262C13.6025 3.93653 14.1637 4.17099 14.6863 4.46665L16.1634 1.85549ZM16.8896 1.09169L14.9505 1.73804L15.8992 4.58409L17.8383 3.93774L16.8896 1.09169ZM20.5459 3.57537L18.4246 1.45405L16.3033 3.57537L18.4246 5.69669L20.5459 3.57537ZM20.2619 7.04944L20.9083 5.11037L18.0623 4.16169L17.4159 6.10075L20.2619 7.04944ZM21.118 8.18497C20.8878 7.35611 20.5587 6.56875 20.1445 5.83654L17.5333 7.31365C17.829 7.8363 18.0635 8.39749 18.2274 8.98771L21.118 8.18497ZM22.1708 8.15836L20.3435 7.2447L19.0019 9.92798L20.8292 10.8416L22.1708 8.15836ZM23 12.5V9.5H20V12.5H23ZM20.3435 14.7553L22.1708 13.8416L20.8292 11.1584L19.0019 12.072L20.3435 14.7553ZM20.1445 16.1635C20.5587 15.4312 20.8878 14.6439 21.118 13.815L18.2274 13.0123C18.0635 13.6025 17.829 14.1637 17.5333 14.6863L20.1445 16.1635ZM20.9083 16.8896L20.2619 14.9506L17.4159 15.8992L18.0623 17.8383L20.9083 16.8896ZM18.4246 20.5459L20.5459 18.4246L18.4246 16.3033L16.3033 18.4246L18.4246 20.5459ZM14.9505 20.262L16.8896 20.9083L17.8383 18.0623L15.8992 17.4159L14.9505 20.262ZM13.815 21.118C14.6439 20.8878 15.4312 20.5587 16.1634 20.1445L14.6863 17.5333C14.1637 17.829 13.6025 18.0635 13.0123 18.2274L13.815 21.118ZM13.8416 22.1708L14.7553 20.3435L12.072 19.0019L11.1584 20.8292L13.8416 22.1708ZM9.5 23H12.5V20H9.5V23ZM7.24469 20.3435L8.15836 22.1708L10.8416 20.8292L9.92797 19.0019L7.24469 20.3435ZM5.83656 20.1445C6.56877 20.5587 7.35611 20.8878 8.18496 21.118L8.98771 18.2274C8.3975 18.0635 7.83631 17.829 7.31367 17.5333L5.83656 20.1445ZM5.11038 20.9083L7.04946 20.262L6.10078 17.4159L4.1617 18.0623L5.11038 20.9083ZM1.45406 18.4246L3.57538 20.5459L5.6967 18.4246L3.57538 16.3033L1.45406 18.4246ZM1.73805 14.9506L1.0917 16.8896L3.93775 17.8383L4.5841 15.8992L1.73805 14.9506ZM0.882023 13.815C1.1122 14.6439 1.4413 15.4312 1.8555 16.1635L4.46666 14.6863C4.171 14.1637 3.93654 13.6025 3.77263 13.0123L0.882023 13.815ZM-0.17082 13.8416L1.65651 14.7553L2.99815 12.072L1.17082 11.1584L-0.17082 13.8416ZM-1 9.5V12.5H2V9.5H-1ZM1.6565 7.2447L-0.170821 8.15836L1.17082 10.8416L2.99814 9.92798L1.6565 7.2447ZM1.8555 5.83654C1.44129 6.56875 1.1122 7.35611 0.88202 8.18497L3.77263 8.98771C3.93653 8.39749 4.171 7.8363 4.46666 7.31365L1.8555 5.83654ZM1.0917 5.11037L1.73805 7.04944L4.5841 6.10076L3.93775 4.16169L1.0917 5.11037ZM3.57538 1.45405L1.45406 3.57537L3.57538 5.69669L5.6967 3.57537L3.57538 1.45405ZM7.04946 1.73804L5.11038 1.09169L4.1617 3.93774L6.10077 4.58409L7.04946 1.73804ZM8.18497 0.882016C7.35612 1.11219 6.56877 1.44129 5.83656 1.85549L7.31367 4.46665C7.83631 4.17099 8.3975 3.93653 8.98771 3.77262L8.18497 0.882016ZM8.15836 -0.170821L7.2447 1.6565L9.92798 2.99814L10.8416 1.17082L8.15836 -0.170821Z" fill="#ff7f00" mask="url(#path-1-inside-1_383_45)"/>
    <path stroke="#ff7f00" d="M13.75 11C13.75 12.5188 12.5188 13.75 11 13.75C9.48122 13.75 8.25 12.5188 8.25 11C8.25 9.48122 9.48122 8.25 11 8.25C12.5188 8.25 13.75 9.48122 13.75 11Z" stroke-width="1.5"/>
</svg>
