<svg width="24" height="24" viewBox="0 0 24 24" fill="none" xmlns="http://www.w3.org/2000/svg">
    <path d="M5.72022 14.5355L11.554 19.6119C11.665 19.7085 11.7205 19.7568 11.7784 19.7854C11.9181 19.8545 12.0819 19.8545 12.2216 19.7854C12.2795 19.7568 12.335 19.7085 12.446 19.6119L18.2798 14.5355C20.068 12.9794 20.2811 10.2781 18.759 8.46085L18.672 8.35698C16.9385 6.28729 13.6562 6.65226 12.4196 9.05219C12.2439 9.39333 11.7561 9.39333 11.5804 9.05219C10.3438 6.65226 7.06149 6.28729 5.32796 8.35698L5.24096 8.46085C3.71888 10.2781 3.93201 12.9794 5.72022 14.5355Z" fill="#FF6632"/>
    <path d="M11.554 19.6119L12.0463 19.0461L12.0463 19.0461L11.554 19.6119ZM5.72022 14.5355L5.22789 15.1013L5.72022 14.5355ZM5.24096 8.46085L5.81592 8.94243V8.94243L5.24096 8.46085ZM5.32796 8.35698L4.753 7.8754L5.32796 8.35698ZM18.672 8.35698L18.0971 8.83855L18.0971 8.83855L18.672 8.35698ZM18.759 8.46085L19.334 7.97927L19.334 7.97927L18.759 8.46085ZM18.2798 14.5355L18.7721 15.1013L18.2798 14.5355ZM12.446 19.6119L12.9384 20.1777L12.446 19.6119ZM12.4196 9.05219L11.7529 8.70868L11.7529 8.70868L12.4196 9.05219ZM11.5804 9.05219L12.2471 8.70868L12.2471 8.70868L11.5804 9.05219ZM11.7784 19.7854L12.1108 19.1131L12.1108 19.1131L11.7784 19.7854ZM12.2216 19.7854L11.8892 19.1131L11.8892 19.1131L12.2216 19.7854ZM12.0463 19.0461L6.21256 13.9697L5.22789 15.1013L11.0616 20.1777L12.0463 19.0461ZM5.81592 8.94243L5.90293 8.83855L4.753 7.8754L4.66599 7.97928L5.81592 8.94243ZM18.0971 8.83855L18.1841 8.94243L19.334 7.97927L19.247 7.8754L18.0971 8.83855ZM17.7874 13.9697L11.9537 19.0461L12.9384 20.1777L18.7721 15.1013L17.7874 13.9697ZM18.1841 8.94243C19.4437 10.4463 19.2673 12.6819 17.7874 13.9697L18.7721 15.1013C20.8686 13.2769 21.1185 10.1098 19.334 7.97927L18.1841 8.94243ZM13.0864 9.39571C14.0773 7.47238 16.7078 7.17989 18.0971 8.83855L19.247 7.8754C17.1692 5.39469 13.235 5.83214 11.7529 8.70868L13.0864 9.39571ZM10.9136 9.39571C11.3687 10.2788 12.6313 10.2788 13.0864 9.39571L11.7529 8.70868C11.8564 8.50784 12.1436 8.50784 12.2471 8.70868L10.9136 9.39571ZM5.90293 8.83855C7.29219 7.17989 9.92267 7.47238 10.9136 9.39571L12.2471 8.70868C10.765 5.83214 6.83079 5.39469 4.753 7.8754L5.90293 8.83855ZM6.21256 13.9697C4.73265 12.6819 4.55627 10.4463 5.81592 8.94243L4.66599 7.97928C2.88149 10.1098 3.13136 13.2769 5.22789 15.1013L6.21256 13.9697ZM11.0616 20.1777C11.1385 20.2445 11.2798 20.3756 11.4461 20.4578L12.1108 19.1131C12.1482 19.1316 12.1664 19.1478 12.1519 19.1363C12.1448 19.1307 12.1336 19.1214 12.115 19.1055C12.0963 19.0896 12.0748 19.0709 12.0463 19.0461L11.0616 20.1777ZM11.9537 19.0461C11.9252 19.0709 11.9037 19.0896 11.885 19.1055C11.8664 19.1214 11.8552 19.1307 11.8481 19.1363C11.8336 19.1478 11.8518 19.1316 11.8892 19.1131L12.5539 20.4578C12.7202 20.3756 12.8615 20.2445 12.9384 20.1777L11.9537 19.0461ZM11.4461 20.4578C11.7952 20.6303 12.2048 20.6303 12.5539 20.4578L11.8892 19.1131C11.959 19.0786 12.041 19.0786 12.1108 19.1131L11.4461 20.4578Z" fill="#FF6632"/>
</svg>
